<mxfile host="65bd71144e">
    <diagram id="eN27WGCjUppxtXO-YYUv" name="Page-1">
        <mxGraphModel dx="944" dy="625" grid="1" gridSize="10" guides="1" tooltips="1" connect="1" arrows="1" fold="1" page="1" pageScale="1" pageWidth="850" pageHeight="1100" math="0" shadow="0">
            <root>
                <mxCell id="0"/>
                <mxCell id="1" parent="0"/>
                <mxCell id="4" value="" style="edgeStyle=none;html=1;fontSize=15;fontColor=#231515;" edge="1" parent="1" source="2" target="3">
                    <mxGeometry relative="1" as="geometry"/>
                </mxCell>
                <mxCell id="2" value="&lt;b&gt;&lt;font color=&quot;#231515&quot; style=&quot;font-size: 15px;&quot;&gt;Input Javascript&lt;/font&gt;&lt;/b&gt;" style="rounded=1;whiteSpace=wrap;html=1;fillColor=#CCCC00;strokeColor=#1a1414;strokeWidth=2;" vertex="1" parent="1">
                    <mxGeometry x="330" y="90" width="155" height="60" as="geometry"/>
                </mxCell>
                <mxCell id="8" value="" style="edgeStyle=none;html=1;fontSize=24;fontColor=#120303;" edge="1" parent="1" source="3" target="7">
                    <mxGeometry relative="1" as="geometry"/>
                </mxCell>
                <mxCell id="3" value="&lt;font size=&quot;1&quot; color=&quot;#120303&quot;&gt;&lt;b style=&quot;font-size: 24px;&quot;&gt;Byte Code&lt;/b&gt;&lt;/font&gt;" style="whiteSpace=wrap;html=1;fillColor=#d5e8d4;strokeColor=#000066;rounded=1;gradientColor=#97d077;strokeWidth=2;" vertex="1" parent="1">
                    <mxGeometry x="323.75" y="280" width="167.5" height="60" as="geometry"/>
                </mxCell>
                <mxCell id="6" value="Interpreter" style="rounded=1;whiteSpace=wrap;html=1;labelBackgroundColor=none;strokeColor=#432D57;fontSize=15;fontColor=#ffffff;fillColor=#76608a;rotation=-90;" vertex="1" parent="1">
                    <mxGeometry x="375" y="200" width="100" height="30" as="geometry"/>
                </mxCell>
                <mxCell id="7" value="&lt;font style=&quot;font-size: 20px;&quot;&gt;Machine Code&lt;/font&gt;" style="whiteSpace=wrap;html=1;fillColor=#000066;strokeColor=#d4e7f2;rounded=1;fontColor=#ffffff;strokeWidth=2;" vertex="1" parent="1">
                    <mxGeometry x="326.25" y="470" width="162.5" height="60" as="geometry"/>
                </mxCell>
                <mxCell id="9" value="Compiler" style="rounded=1;whiteSpace=wrap;html=1;labelBackgroundColor=none;strokeColor=#b85450;fontSize=15;fillColor=#000033;rotation=-90;gradientColor=#ea6b66;gradientDirection=east;" vertex="1" parent="1">
                    <mxGeometry x="375" y="389" width="100" height="30" as="geometry"/>
                </mxCell>
            </root>
        </mxGraphModel>
    </diagram>
</mxfile>